<svg xmlns="http://www.w3.org/2000/svg" xmlns:xlink="http://www.w3.org/1999/xlink" viewBox="0 0 220.52 343.91">
  <defs>
    <linearGradient id="linear-gradient" x1="-27.63" y1="-96.56" x2="256.9" y2="-96.56" gradientTransform="translate(36.67 306.49) rotate(-20.16)" gradientUnits="userSpaceOnUse">
      <stop offset="0" stop-color="#94e5ff"/>
      <stop offset="0.77" stop-color="#abaced"/>
      <stop offset="1" stop-color="#b29ae7"/>
    </linearGradient>
  </defs>
  <g id="Layer_3" data-name="Layer 3">
    <g>
      <path d="M208.82,329.71c-7.63,3.52-28.65,2.17-37.43,2.18-31.49,0-69.21.21-100.6,2.66-15.53,1.21-48.46-.08-54.3-4.28-4.49-3.24-3-34.47-3.11-47.46l-.56-52.58L11.69,125.07C11,103.54,10,39.83,12,34c4-11.12,2.54-12.37,15.11-16,15.39-4.42,42.94-2.92,58.9-3.53,21.5-.66,43-1.63,64.48-2.42,13.42-.5,48.67-1.94,52.08,2.45,4.16,5.35,2.7,15.15,4,24.35a295,295,0,0,1,2.74,42.52C209,150,214,218.5,211.34,287.11c-.2,5.23,1.49,10.43,1.21,15.66-.26,4.84.66,8.77.55,14.75S213.48,327.55,208.82,329.71Z" stroke="#363636" stroke-miterlimit="10" stroke-width="7" fill="url(#linear-gradient)"/>
      <path d="M79.74,188.79c-.29-.78-.53-1.57-.74-2.37-2.24-8.86-1.2-17.2,3.81-24.81s12.91-13.12,21.19-14c5.2-.57,10.53-.78,15.64.51,6.6,1.67,11.9,6.68,15.35,12.53,2.91,5,6.2,13.14,5.06,19-.31,1.58-.63,3.15-1,4.72a7.37,7.37,0,0,0-.2.81c-.12,1.84-1,3.39-1.66,5.05a33.2,33.2,0,0,1-2.38,4.31,13.5,13.5,0,0,1-3.64,4.21,24.43,24.43,0,0,0-2,2,7.64,7.64,0,0,1-1.43,1.25c-1.51.83-3.11,1.49-4.61,2.36s-3.43,1.12-5.16,1.63a24.32,24.32,0,0,1-8.9.91c-1.26-.11-2.55,0-3.81-.16a23.65,23.65,0,0,1-5.64-1c-4.62-1.84-9.07-3.25-12.88-6.67A25.73,25.73,0,0,1,79.74,188.79Z" fill="#363636" stroke="#363636" stroke-miterlimit="10" stroke-width="8"/>
      <path d="M209.14,46.54c-6.17.57-192.74,9-192.74,9" fill="none" stroke="#363636" stroke-linecap="round" stroke-linejoin="round" stroke-width="5"/>
      <path d="M117.94,204.64c.58-.11,1.43,6.07,1.52,6.49a17.34,17.34,0,0,0,3,7.39c4.32,5.6,10.6,9.06,14.24,15.37,1.92,3.31,2.76,7.15,4.67,10.48a9.86,9.86,0,0,0,3.6,4c1.12.6,5.22,1.23,4-1.28a3.92,3.92,0,0,0-.91-1A9.7,9.7,0,0,1,145,240.6a24.23,24.23,0,0,1-.07-5.18c.33-6.84-1.42-13.06-6.48-17.83A22.35,22.35,0,0,1,132,206.33a42.13,42.13,0,0,1-1-6.51" fill="none" stroke="#363636" stroke-linecap="round" stroke-linejoin="round" stroke-width="5"/>
      <path d="M134.43,201.54s7.07,4.66,10,7.19c5,4.38,7.26,8.2,13.73,10,3.21.88,9-1.5,11.55.65s7.9,11.37,7.79,10.05c-.06-.62-.52-5.23-.66-5.81-1.65-6.93-6-10.06-10.69-13.41-4.49-3.22-9.72-1.17-12.93-6-3.39-5.07-8.94-13.46-11.88-18.87" fill="none" stroke="#363636" stroke-linecap="round" stroke-linejoin="round" stroke-width="5"/>
      <path d="M141.72,183.53c.18-.56,6,1.65,6.42,1.78a17.4,17.4,0,0,0,7.93.91c7-1.11,13-4.95,20.32-5.12,3.82-.09,7.59,1,11.43.94a9.81,9.81,0,0,0,5.26-1.23c1.06-.7,3.59-4,.79-4.12a4,4,0,0,0-1.34.3,9.72,9.72,0,0,1-6.28.07,24.79,24.79,0,0,1-4.58-2.42c-5.84-3.58-12.14-5-18.75-2.88a22.4,22.4,0,0,1-13,.23,41,41,0,0,1-6.21-2.23" fill="none" stroke="#363636" stroke-linecap="round" stroke-linejoin="round" stroke-width="5"/>
      <path d="M141.15,165.93s7.48-4,11.09-5.28c6.25-2.29,10.67-2.43,15.34-7.26,2.31-2.39,3-8.65,6.12-9.82s13.76-1.47,12.55-2c-.57-.25-4.84-2.06-5.42-2.22-6.87-1.87-11.71.47-16.89,3-5,2.38-5.69,8-11.45,8.47-6.08.53-16.1,1.38-22.27,1.36" fill="none" stroke="#363636" stroke-linecap="round" stroke-linejoin="round" stroke-width="5"/>
      <path d="M128.79,151.25c-.46-.37,3.72-5,4-5.33a17.45,17.45,0,0,0,3.73-7.06c1.5-6.92.12-14,2.61-20.79,1.3-3.6,3.7-6.71,5-10.31a9.87,9.87,0,0,0,.76-5.35c-.27-1.24-2.41-4.79-3.55-2.24a3.71,3.71,0,0,0-.21,1.37,9.69,9.69,0,0,1-2.22,5.87A24.41,24.41,0,0,1,135,110.8c-5.46,4.14-9.09,9.48-9.49,16.42a22.42,22.42,0,0,1-4.5,12.16,42.39,42.39,0,0,1-4.33,5" fill="none" stroke="#363636" stroke-linecap="round" stroke-linejoin="round" stroke-width="5"/>
      <path d="M113.62,144.45s-1-8.41-.9-12.25c.14-6.66,1.61-10.83-1.19-16.93-1.39-3-7-6-6.93-9.26s3.63-13.37,2.7-12.43c-.45.44-3.68,3.76-4,4.24-4.25,5.72-3.83,11.09-3.4,16.81.41,5.51,5.35,8.2,3.73,13.75-1.7,5.85-4.56,15.5-6.81,21.23" fill="none" stroke="#363636" stroke-linecap="round" stroke-linejoin="round" stroke-width="5"/>
      <path d="M95.05,149c-.56.17-2.15-5.85-2.28-6.26a17.51,17.51,0,0,0-3.87-7c-5-5-11.6-7.73-16-13.56-2.3-3.06-3.59-6.77-5.88-9.85A9.92,9.92,0,0,0,63,108.78c-1.18-.45-5.33-.6-3.81,1.75a4,4,0,0,0,1,.93,9.7,9.7,0,0,1,3.71,5.06,24.64,24.64,0,0,1,.69,5.13c.48,6.84,3,12.8,8.55,16.94A22.29,22.29,0,0,1,80.86,149a40.47,40.47,0,0,1,1.8,6.34" fill="none" stroke="#363636" stroke-linecap="round" stroke-linejoin="round" stroke-width="5"/>
      <path d="M81.05,158s-7.57-3.8-10.74-6c-5.5-3.76-8.18-7.28-14.82-8.27-3.29-.49-8.79,2.57-11.55.73s-9.19-10.35-8.92-9.06c.13.62,1.13,5.14,1.34,5.7,2.46,6.68,7.19,9.27,12.21,12,4.84,2.67,9.79,0,13.55,4.4,4,4.63,10.48,12.3,14,17.33" fill="none" stroke="#363636" stroke-linecap="round" stroke-linejoin="round" stroke-width="5"/>
      <path d="M76.3,175.5c-.11.58-6.18-.8-6.61-.87a17.49,17.49,0,0,0-8,.19c-6.76,2.07-12.22,6.71-19.41,7.89-3.78.61-7.67,0-11.46.64a9.88,9.88,0,0,0-5,2c-.95.84-3,4.45-.21,4.19a3.8,3.8,0,0,0,1.29-.48,9.69,9.69,0,0,1,6.21-.94A24.68,24.68,0,0,1,38,189.83c6.28,2.74,12.71,3.3,19,.26a22.36,22.36,0,0,1,12.81-2,40.37,40.37,0,0,1,6.46,1.34" fill="none" stroke="#363636" stroke-linecap="round" stroke-linejoin="round" stroke-width="5"/>
      <path d="M77.85,191.8s-6.56,5.35-9.84,7.36c-5.67,3.48-10,4.49-13.61,10.14-1.79,2.8-1.25,9.07-4.06,10.83s-13.21,4.15-11.91,4.44c.61.13,5.14,1.06,5.74,1.1,7.11.49,11.4-2.76,16-6.21,4.42-3.32,4-8.93,9.57-10.56,5.85-1.72,15.51-4.52,21.55-5.72" fill="none" stroke="#363636" stroke-linecap="round" stroke-linejoin="round" stroke-width="5"/>
      <path d="M89.5,203.54c.41.42-4.24,4.57-4.54,4.87A17.35,17.35,0,0,0,80.49,215c-2.24,6.71-1.63,13.84-4.84,20.38-1.69,3.44-4.41,6.27-6.11,9.71a9.88,9.88,0,0,0-1.34,5.24c.13,1.26,1.89,5,3.29,2.6a4,4,0,0,0,.36-1.33A9.78,9.78,0,0,1,74.68,246a25,25,0,0,1,4.26-2.94c5.87-3.53,10.06-8.44,11.21-15.3a22.34,22.34,0,0,1,5.79-11.6,41.63,41.63,0,0,1,4.83-4.49" fill="none" stroke="#363636" stroke-linecap="round" stroke-linejoin="round" stroke-width="5"/>
      <path d="M102.32,207.46s.56,8.45.3,12.28c-.46,6.64-2.14,10.74.36,17,1.24,3.08,6.67,6.28,6.47,9.59s-4.27,13.17-3.29,12.28c.46-.43,3.85-3.58,4.23-4,4.52-5.51,4.36-10.89,4.21-16.63-.14-5.52-4.95-8.45-3.06-13.91,2-5.76,5.31-15.26,7.84-20.88" fill="none" stroke="#363636" stroke-linecap="round" stroke-linejoin="round" stroke-width="5"/>
      <path d="M176,264.62a2.15,2.15,0,0,0,1.32,1.28l5.53,1.83c1.29,2.29.38,3.61-1.39,4.55a16.6,16.6,0,0,1-1.82.78,2.15,2.15,0,0,0-1.38,2c0,2.71-.07,5.27-.11,8a2.14,2.14,0,0,1-1.67,2.06l-1,.23a2.1,2.1,0,0,1-2.07-.69c-2-2.43-1.95-5.44-2.92-8.06a2.16,2.16,0,0,0-1.66-1.37l-2.71-.44a2.16,2.16,0,0,1-1.58-1.17l-.23-.49a2.12,2.12,0,0,1,.63-2.59l3.17-2.46a2.13,2.13,0,0,0,.81-1.43c.23-2,.46-4.08.7-6.16a2.16,2.16,0,0,1,1.65-1.85h0a2.16,2.16,0,0,1,2.33,1c.47.83.93,1.64,1.34,2.47A27.17,27.17,0,0,1,176,264.62Z" fill="#363636"/>
      <path d="M189.92,98.84a2.19,2.19,0,0,0,1.33,1.28l5.52,1.83c1.3,2.28.39,3.61-1.38,4.55a17.47,17.47,0,0,1-1.82.78,2.17,2.17,0,0,0-1.39,2c0,2.7-.07,5.27-.1,8a2.14,2.14,0,0,1-1.68,2.06l-1,.23a2.12,2.12,0,0,1-2.08-.69c-2-2.43-1.94-5.45-2.91-8.06a2.17,2.17,0,0,0-1.67-1.37l-2.7-.44a2.13,2.13,0,0,1-1.58-1.17l-.24-.49a2.14,2.14,0,0,1,.64-2.59l3.16-2.46a2.11,2.11,0,0,0,.82-1.43c.23-2,.46-4.08.7-6.16a2.14,2.14,0,0,1,1.65-1.85h0a2.16,2.16,0,0,1,2.32,1c.48.83.94,1.64,1.35,2.47S189.58,97.93,189.92,98.84Z" fill="#363636"/>
      <path d="M39.4,111.24a3.61,3.61,0,0,1-.91,2.09,6.45,6.45,0,0,1-1.63,1.14,5,5,0,0,1-1.54.58,3.56,3.56,0,0,1-2-.36,4.55,4.55,0,0,1-1.7-6.92,7.22,7.22,0,0,1,1.74-1.42,4.14,4.14,0,0,1,2.33-.44,5.1,5.1,0,0,1,2.83,1.75,2.52,2.52,0,0,1,.6,1.1A6.26,6.26,0,0,1,39.4,111.24Z" fill="#363636"/>
      <path d="M169.05,88.48a3.61,3.61,0,0,1-.91,2.09,6,6,0,0,1-1.64,1.14,4.52,4.52,0,0,1-1.53.58,3.55,3.55,0,0,1-2-.36A4.55,4.55,0,0,1,161.29,85,7.18,7.18,0,0,1,163,83.6a4.11,4.11,0,0,1,2.34-.45,5.11,5.11,0,0,1,2.82,1.75,2.46,2.46,0,0,1,.6,1.11A6.21,6.21,0,0,1,169.05,88.48Z" fill="#363636"/>
      <path d="M169.23,121.66a3.58,3.58,0,0,1-.91,2.08,6,6,0,0,1-1.64,1.14,4.76,4.76,0,0,1-1.53.59,3.65,3.65,0,0,1-2-.36,4.57,4.57,0,0,1-1.71-6.93,7.18,7.18,0,0,1,1.74-1.41,4.11,4.11,0,0,1,2.34-.45,5.13,5.13,0,0,1,2.82,1.76,2.38,2.38,0,0,1,.6,1.1A6.08,6.08,0,0,1,169.23,121.66Z" fill="#363636"/>
      <path d="M53.5,278a3.58,3.58,0,0,1-.91,2.08A6,6,0,0,1,51,281.23a4.52,4.52,0,0,1-1.53.58,3.46,3.46,0,0,1-2-.36,4.55,4.55,0,0,1-1.71-6.92,7.18,7.18,0,0,1,1.74-1.41,4.11,4.11,0,0,1,2.34-.45,5.11,5.11,0,0,1,2.82,1.75,2.46,2.46,0,0,1,.6,1.11A6.24,6.24,0,0,1,53.5,278Z" fill="#363636"/>
      <path d="M79.69,78.79A2.11,2.11,0,0,0,81,80.06l5.53,1.83c1.29,2.29.38,3.62-1.39,4.56a15.81,15.81,0,0,1-1.82.78,2.15,2.15,0,0,0-1.38,2c0,2.7-.07,5.27-.11,8a2.14,2.14,0,0,1-1.67,2.06l-1,.22a2.08,2.08,0,0,1-2.07-.68c-2-2.43-1.95-5.45-2.92-8.06a2.16,2.16,0,0,0-1.66-1.37l-2.71-.44a2.16,2.16,0,0,1-1.58-1.17L68,87.26a2.12,2.12,0,0,1,.63-2.59l3.17-2.46a2.09,2.09,0,0,0,.81-1.43c.23-2,.47-4.08.7-6.16A2.16,2.16,0,0,1,75,72.77h0a2.14,2.14,0,0,1,2.33,1c.47.83.94,1.64,1.34,2.47A27.17,27.17,0,0,1,79.69,78.79Z" fill="#363636"/>
      <path d="M207.66,299.68c-6.17.57-192.75,9-192.75,9" fill="none" stroke="#363636" stroke-linecap="round" stroke-linejoin="round" stroke-width="5"/>
    </g>
  </g>
</svg>
