<svg xmlns="http://www.w3.org/2000/svg" xmlns:xlink="http://www.w3.org/1999/xlink" viewBox="0 0 224.75 345.6">
  <defs>
    <linearGradient id="linear-gradient" x1="9.38" y1="174.3" x2="215.37" y2="174.3" gradientUnits="userSpaceOnUse">
      <stop offset="0" stop-color="#94e5ff"/>
      <stop offset="0.77" stop-color="#abaced"/>
      <stop offset="1" stop-color="#b29ae7"/>
    </linearGradient>
  </defs>
  <path d="M20.81,334c7.77,3.2,28.71,1,37.49.6,31.45-1.29,69.15-2.72,100.61-1.61,15.57.55,48.42-2.13,54.07-6.58,4.36-3.42,1.51-34.56,1.1-47.54l-1.67-52.56-3.33-105.11c-.25-21.54-1.88-85.23-4.2-90.95C200.42,19.3,201.82,18,189.11,14.92c-15.56-3.76-43-1.09-59-1-21.51.25-43,.19-64.53.31-13.42.07-48.71.12-51.92,4.65-3.93,5.53-2.07,15.26-3,24.5A295.59,295.59,0,0,0,9.74,86C13,154.47,11,223.11,16.48,291.54c.42,5.22-1,10.49-.54,15.7.47,4.82-.29,8.79.07,14.76S16.06,332,20.81,334Z" stroke="#363636" stroke-miterlimit="10" stroke-width="7" fill="url(#linear-gradient)"/>
  <g>
    <path d="M130.22,239.52a1.07,1.07,0,0,1,0-1.15c1.24-2.5,3.92-2.31,5.95-4.07a7.2,7.2,0,0,0,2.17-4.78,46.17,46.17,0,0,0,0-5.39c0-1.11.15-2.42,1.11-3a2.29,2.29,0,0,1,2.73.76,7.69,7.69,0,0,1,1.21,2.83c.77,2.7,2.19,5.64,4.88,6.34,1.67.44,3.92.13,4.66,1.71.52,1.1-.2,2.42-1.15,3.17s-2.14,1.17-3.07,1.95a8.21,8.21,0,0,0-2.49,5.23,55,55,0,0,1-.79,5.88,2.3,2.3,0,0,1-.55,1.1,1.75,1.75,0,0,1-2.44-.36,6,6,0,0,1-1-2.56c-.69-2.89-2.14-6-5-6.88C135.07,239.92,131.29,241,130.22,239.52Zm10.45-4.31a.56.56,0,0,1,0,.08,1.8,1.8,0,0,1-.39.39c-.4.32-1.68.69-2.06,1a.45.45,0,0,0,.14.76c.58.2,2.15.15,2.6.66a2.27,2.27,0,0,1,.4.79l.76,2.11a.69.69,0,0,0,1.23.16,2.1,2.1,0,0,0,.26-.64,10.72,10.72,0,0,0,0-1.88,2,2,0,0,1,.7-1.66c.61-.4,1.67-.4,1.73-1.13,0-.49-.5-.83-1-.89a4.52,4.52,0,0,1-1.44-.21c-.71-.35-.87-1.26-1.15-2s-1.12-1.48-1.77-1c-.5.36-.39,1.14-.18,1.73A2.17,2.17,0,0,1,140.67,235.21Z" fill="#363636"/>
    <path d="M158.31,125.12a1.5,1.5,0,0,0,.88.93l3.75,1.47c.81,1.64.14,2.54-1.12,3.13a12.28,12.28,0,0,1-1.29.48,1.5,1.5,0,0,0-1,1.32c-.12,1.89-.24,3.68-.36,5.56a1.49,1.49,0,0,1-1.23,1.38l-.69.12a1.46,1.46,0,0,1-1.41-.55c-1.33-1.77-1.16-3.87-1.73-5.72a1.5,1.5,0,0,0-1.11-1l-1.85-.41a1.49,1.49,0,0,1-1-.87l-.15-.35a1.5,1.5,0,0,1,.53-1.78l2.28-1.6a1.45,1.45,0,0,0,.61-1c.23-1.4.47-2.82.71-4.27a1.49,1.49,0,0,1,1.2-1.23h0a1.47,1.47,0,0,1,1.57.8c.3.59.59,1.17.85,1.77S158.11,124.47,158.31,125.12Z" fill="#363636"/>
    <path d="M76.75,134.05c-3,.43-2.79,1.58-2.78,4.22,0,.69-.78,1.15-1.46,1.24a1.9,1.9,0,0,1-2.05-1c-.41-2-.91-3.47-3.28-3.94-1-.2-1.31-2.14-.38-2.59,1.31-.64,2.19-1.05,2.48-2.11.23-.82-.07-2,.27-2.75a1.79,1.79,0,0,1,1.94-1,2.49,2.49,0,0,1,2,1.36c.57,1.36.17,2.41,1.33,3.09,1.81.46,2,.66,2.54,1.18S77.63,133.93,76.75,134.05Z" fill="#363636"/>
    <path d="M151.56,105a1.65,1.65,0,0,1-1.35,1.42c-1.65.26-3.58-.94-3.58-2.39.16-1.8.81-3.19,2.59-3.46C151.75,100.48,152,102.08,151.56,105Z" fill="#363636"/>
    <path d="M74.9,238.39a2,2,0,0,1-1.65,1.76c-2,.32-4.41-1.16-4.41-3,.2-2.21,1-3.91,3.19-4.25C75.14,232.85,75.39,234.82,74.9,238.39Z" fill="#363636"/>
    <path d="M162.62,194a2.05,2.05,0,0,1-1.65,1.76c-2,.31-4.41-1.16-4.41-3,.19-2.21,1-3.92,3.19-4.26C162.85,188.44,163.11,190.41,162.62,194Z" fill="#363636"/>
    <path d="M63.7,162.2a1.25,1.25,0,0,1-1,1.07c-1.24.2-2.7-.71-2.7-1.8.12-1.36.61-2.41,2-2.62C63.84,158.8,64,160,63.7,162.2Z" fill="#363636"/>
    <path d="M94.38,272.38c3.05-19.19,10.54-67.17,14.52-94.11,0,.22-20.66,8.63-22.74,9.74a5.76,5.76,0,0,1-7.73-7.89c8-15,11.69-28.39,19-43.75q7.19-15,13.93-30.31c2.41-5.45,6.85-24.06,13.37-24.5,4.7-.34,2.58,3.12,2.06,5.17a284.68,284.68,0,0,0-8.06,52.09c-.28,4.47-2.86,16.09-.21,20,4,5.85,13.41-.46,18.41-.95,6.78-.65,4.52,7.51,3,11.4l-21.33,54.5L108,251c-1.77,4.53-3.76,9-5.33,13.63-1,2.91-1.45,7.89-4.43,9.61C96.64,275.16,94,274.93,94.38,272.38Z" fill="#363636" stroke="#363636" stroke-linecap="round" stroke-linejoin="round" stroke-width="3"/>
  </g>
  <path d="M209.49,43.25c-6.17.57-192.75,9-192.75,9" fill="none" stroke="#363636" stroke-linecap="round" stroke-linejoin="round" stroke-width="5"/>
  <path d="M208,296.39c-6.17.57-192.75,9-192.75,9" fill="none" stroke="#363636" stroke-linecap="round" stroke-linejoin="round" stroke-width="5"/>
</svg>
