<svg id="cards" xmlns="http://www.w3.org/2000/svg" xmlns:xlink="http://www.w3.org/1999/xlink" viewBox="0 0 224.75 345.6">
  <defs>
    <linearGradient id="linear-gradient" x1="-128.77" y1="-1250.86" x2="155.77" y2="-1250.86" gradientTransform="translate(531.3 1354.6) rotate(-20.16)" gradientUnits="userSpaceOnUse">
      <stop offset="0" stop-color="#94e5ff"/>
      <stop offset="0.77" stop-color="#abaced"/>
      <stop offset="1" stop-color="#b29ae7"/>
    </linearGradient>
  </defs>
  <g>
    <path d="M210.66,329.1c-7.62,3.52-28.64,2.17-37.43,2.18-31.48.05-69.21.22-100.59,2.66-15.53,1.21-48.46-.08-54.3-4.28-4.5-3.24-3-34.47-3.11-47.45l-.56-52.58L13.54,124.46c-.66-21.53-1.73-85.23.35-91,4-11.12,2.53-12.36,15.1-16,15.39-4.42,43-2.92,58.9-3.53,21.5-.66,43-1.63,64.49-2.42,13.41-.5,48.67-1.94,52.08,2.45,4.15,5.35,2.7,15.16,4,24.35a295,295,0,0,1,2.74,42.52c-.34,68.58,4.58,137.07,2,205.68-.2,5.24,1.48,10.43,1.2,15.67-.26,4.83.67,8.76.56,14.74S215.33,326.94,210.66,329.1Z" stroke="#363636" stroke-miterlimit="10" stroke-width="7" fill="url(#linear-gradient)"/>
    <path d="M211,45.93c-6.17.57-192.75,9-192.75,9" fill="none" stroke="#363636" stroke-linecap="round" stroke-linejoin="round" stroke-width="5"/>
    <path d="M177.88,264a2.14,2.14,0,0,0,1.33,1.28l5.52,1.83c1.3,2.29.39,3.62-1.38,4.55a17.52,17.52,0,0,1-1.82.79,2.14,2.14,0,0,0-1.39,2c0,2.71-.07,5.28-.1,8a2.16,2.16,0,0,1-1.68,2.07l-1,.22a2.12,2.12,0,0,1-2.08-.69c-2-2.43-1.94-5.44-2.91-8.06a2.14,2.14,0,0,0-1.67-1.36l-2.7-.45a2.13,2.13,0,0,1-1.58-1.17l-.24-.48a2.16,2.16,0,0,1,.63-2.6l3.17-2.45a2.15,2.15,0,0,0,.82-1.44c.23-2,.46-4.08.7-6.16a2.14,2.14,0,0,1,1.65-1.85h0a2.14,2.14,0,0,1,2.32,1c.48.83.94,1.64,1.35,2.48S177.54,263.11,177.88,264Z" fill="#363636"/>
    <path d="M88.58,249.23a2.19,2.19,0,0,0,1.33,1.28l5.52,1.82c1.3,2.29.39,3.62-1.38,4.56a16.77,16.77,0,0,1-1.83.78,2.15,2.15,0,0,0-1.38,2c0,2.7-.07,5.27-.1,8a2.14,2.14,0,0,1-1.68,2.06l-1,.23a2.12,2.12,0,0,1-2.08-.69c-2-2.43-1.95-5.45-2.91-8.06a2.17,2.17,0,0,0-1.67-1.37l-2.7-.44a2.13,2.13,0,0,1-1.58-1.17l-.24-.49a2.15,2.15,0,0,1,.63-2.59l3.17-2.46a2.11,2.11,0,0,0,.82-1.43c.23-2,.46-4.08.7-6.16a2.14,2.14,0,0,1,1.65-1.85h0a2.16,2.16,0,0,1,2.32,1c.48.83.94,1.64,1.35,2.47S88.24,248.32,88.58,249.23Z" fill="#363636"/>
    <path d="M41.25,110.63a3.61,3.61,0,0,1-.91,2.09,6,6,0,0,1-1.64,1.14,4.52,4.52,0,0,1-1.53.58,3.56,3.56,0,0,1-2-.36,4.56,4.56,0,0,1-1.71-6.92,7.18,7.18,0,0,1,1.74-1.41,4.11,4.11,0,0,1,2.34-.45,5.11,5.11,0,0,1,2.82,1.75,2.46,2.46,0,0,1,.6,1.11A6,6,0,0,1,41.25,110.63Z" fill="#363636"/>
    <path d="M192.26,84a3.55,3.55,0,0,1-.91,2.09,6,6,0,0,1-1.63,1.14,4.57,4.57,0,0,1-1.54.58,3.43,3.43,0,0,1-2-.36,4.55,4.55,0,0,1-1.71-6.92,7.18,7.18,0,0,1,1.74-1.41,4.06,4.06,0,0,1,2.33-.45,5.1,5.1,0,0,1,2.83,1.75,2.56,2.56,0,0,1,.6,1.11A6.21,6.21,0,0,1,192.26,84Z" fill="#363636"/>
    <path d="M152.21,100.38a3.58,3.58,0,0,1-.91,2.08,6.14,6.14,0,0,1-1.63,1.14,4.82,4.82,0,0,1-1.54.59,3.65,3.65,0,0,1-2-.36,4.57,4.57,0,0,1-1.71-6.93,7.18,7.18,0,0,1,1.74-1.41,4.11,4.11,0,0,1,2.34-.45,5.13,5.13,0,0,1,2.82,1.76,2.49,2.49,0,0,1,.61,1.1A6.26,6.26,0,0,1,152.21,100.38Z" fill="#363636"/>
    <path d="M55.34,277.4a3.52,3.52,0,0,1-.91,2.08,5.83,5.83,0,0,1-1.63,1.14,4.82,4.82,0,0,1-1.54.59,3.62,3.62,0,0,1-2-.36,4.56,4.56,0,0,1-1.71-6.93,7.18,7.18,0,0,1,1.74-1.41,4.08,4.08,0,0,1,2.33-.45,5.16,5.16,0,0,1,2.83,1.76,2.47,2.47,0,0,1,.6,1.1A6.26,6.26,0,0,1,55.34,277.4Z" fill="#363636"/>
    <path d="M81.53,78.18a2.19,2.19,0,0,0,1.33,1.28l5.52,1.83c1.3,2.29.39,3.61-1.38,4.55a17.47,17.47,0,0,1-1.82.78,2.15,2.15,0,0,0-1.38,2c0,2.71-.07,5.27-.11,8A2.14,2.14,0,0,1,82,98.64l-1,.23a2.12,2.12,0,0,1-2.08-.69c-2-2.43-1.94-5.44-2.91-8.06a2.14,2.14,0,0,0-1.67-1.36l-2.7-.45a2.15,2.15,0,0,1-1.58-1.17l-.23-.49a2.12,2.12,0,0,1,.63-2.59l3.17-2.46a2.13,2.13,0,0,0,.81-1.43c.23-2,.46-4.08.7-6.16a2.15,2.15,0,0,1,1.65-1.85h0a2.12,2.12,0,0,1,2.32,1c.48.83.94,1.64,1.35,2.47A24.68,24.68,0,0,1,81.53,78.18Z" fill="#363636"/>
    <path d="M209.51,299.07c-6.17.57-192.75,9-192.75,9" fill="none" stroke="#363636" stroke-linecap="round" stroke-linejoin="round" stroke-width="5"/>
  </g>
  <g>
    <path d="M199.33,177.36c-.65-1.59-47.23-9.28-61.28-12.2,4.14-7.36,20.28-33.14,19.71-34.27-.11-.22-.36-.32-.79-.24a4.59,4.59,0,0,0-1.63.83l-26.13,17.91a.79.79,0,0,1-1.23-.52c-.83-5-12.2-43.71-14.09-53.82-1.42-7.6-4.28-1.29-5,2.38-.83,4-1,8.16-1.76,12.18-1.48,7.56-7.86,37.22-8.1,41.38a.69.69,0,0,1-1,.55L71,135.62a4.74,4.74,0,0,0-1.69-.73c-.43,0-.68.07-.78.31-.48,1.15,18,26.67,20.23,30.14C70.85,170,32.17,180.83,32.3,181.15c.65,1.59,44.08,8.62,56.55,11.22-3.38,6-18,29.11-17.44,30.23.11.22.37.32.8.25s21.85-14.7,32-21.64c3.51,12.55,13.63,55.93,15.26,56.47.33.11.67,0,1-.53s6.89-35.21,10-51.63q12.72,7.51,25.41,15.1c.83.5,3,1.08,2.33-.64-1.65-4.1-14.71-21-18.08-26.08l56.48-14.57a6.36,6.36,0,0,0,2.33-.93C199.34,178,199.46,177.68,199.33,177.36Z" fill="none" stroke="#363636" stroke-miterlimit="10" stroke-width="4.25"/>
    <path d="M113.63,121.09a1.3,1.3,0,0,1-.56.62,2,2,0,0,1-.69.21,2,2,0,0,1-.6,0,1.39,1.39,0,0,1-.64-.35,1.67,1.67,0,0,1,.19-2.6,2.68,2.68,0,0,1,.77-.3,1.44,1.44,0,0,1,.86.12,1.84,1.84,0,0,1,.78.93.88.88,0,0,1,.08.45A2.16,2.16,0,0,1,113.63,121.09Z" fill="#3a3a3a"/>
    <path d="M113.87,128.29a1.28,1.28,0,0,1-.55.62,2.1,2.1,0,0,1-.7.21,1.52,1.52,0,0,1-.6,0,1.27,1.27,0,0,1-.64-.35,1.67,1.67,0,0,1,.2-2.6,2.6,2.6,0,0,1,.76-.29,1.55,1.55,0,0,1,.87.11,1.84,1.84,0,0,1,.78.93,1,1,0,0,1,.08.45A2.27,2.27,0,0,1,113.87,128.29Z" fill="#3a3a3a"/>
    <path d="M114.11,135.28a1.35,1.35,0,0,1-.55.63,2.44,2.44,0,0,1-.7.2,1.52,1.52,0,0,1-.6,0,1.27,1.27,0,0,1-.64-.35,1.67,1.67,0,0,1,.2-2.6,2.6,2.6,0,0,1,.76-.29,1.51,1.51,0,0,1,.86.11,1.84,1.84,0,0,1,.78.93.9.9,0,0,1,.09.46A2.26,2.26,0,0,1,114.11,135.28Z" fill="#3a3a3a"/>
    <path d="M118.47,215.85a1.25,1.25,0,0,1-.56.62,2,2,0,0,1-.69.21,1.53,1.53,0,0,1-.6,0,1.3,1.3,0,0,1-.65-.35,1.67,1.67,0,0,1,.2-2.6,2.66,2.66,0,0,1,.77-.29,1.53,1.53,0,0,1,.86.11,1.84,1.84,0,0,1,.78.93.88.88,0,0,1,.08.45A2.09,2.09,0,0,1,118.47,215.85Z" fill="#3a3a3a"/>
    <path d="M118.71,223.06a1.33,1.33,0,0,1-.55.62,2.46,2.46,0,0,1-.7.21,1.73,1.73,0,0,1-.6,0,1.27,1.27,0,0,1-.64-.35,1.67,1.67,0,0,1,.2-2.6,2.6,2.6,0,0,1,.76-.29,1.51,1.51,0,0,1,.86.11,2,2,0,0,1,.79.94,1,1,0,0,1,.08.45A2.35,2.35,0,0,1,118.71,223.06Z" fill="#3a3a3a"/>
    <path d="M119,230.05a1.33,1.33,0,0,1-.55.62,2.18,2.18,0,0,1-.7.21,2,2,0,0,1-.6,0,1.44,1.44,0,0,1-.64-.35,1.66,1.66,0,0,1,.2-2.6,2.51,2.51,0,0,1,.76-.3,1.44,1.44,0,0,1,.86.12,1.84,1.84,0,0,1,.78.93.85.85,0,0,1,.09.45A2.35,2.35,0,0,1,119,230.05Z" fill="#3a3a3a"/>
    <path d="M81.31,180.85a1.35,1.35,0,0,1-.63-.55,2.35,2.35,0,0,1-.2-.7,1.52,1.52,0,0,1,0-.6,1.27,1.27,0,0,1,.35-.64,1.67,1.67,0,0,1,2.6.2,2.6,2.6,0,0,1,.29.76,1.55,1.55,0,0,1-.11.87,1.88,1.88,0,0,1-.93.78,1,1,0,0,1-.46.08A2.26,2.26,0,0,1,81.31,180.85Z" fill="#3a3a3a"/>
    <path d="M74.1,181.1a1.3,1.3,0,0,1-.62-.56,2,2,0,0,1-.21-.69,2,2,0,0,1,0-.6,1.39,1.39,0,0,1,.35-.64,1.67,1.67,0,0,1,2.6.19,2.68,2.68,0,0,1,.3.77,1.44,1.44,0,0,1-.12.86,1.84,1.84,0,0,1-.93.78.84.84,0,0,1-.45.08A2.16,2.16,0,0,1,74.1,181.1Z" fill="#3a3a3a"/>
    <path d="M67.11,181.34a1.3,1.3,0,0,1-.62-.56,2.7,2.7,0,0,1-.24-1.29,1.33,1.33,0,0,1,.35-.65,1.67,1.67,0,0,1,2.6.2,2.66,2.66,0,0,1,.29.77,1.45,1.45,0,0,1-.11.86,1.84,1.84,0,0,1-.93.78.88.88,0,0,1-.45.08A2.13,2.13,0,0,1,67.11,181.34Z" fill="#3a3a3a"/>
    <path d="M162.93,180.3a1.3,1.3,0,0,1-.62-.56,2,2,0,0,1-.21-.69,2,2,0,0,1,0-.6,1.38,1.38,0,0,1,.35-.65,1.67,1.67,0,0,1,2.6.2,2.66,2.66,0,0,1,.29.77,1.52,1.52,0,0,1-.11.86,1.84,1.84,0,0,1-.93.78.88.88,0,0,1-.45.08A2.13,2.13,0,0,1,162.93,180.3Z" fill="#3a3a3a"/>
    <path d="M155.73,180.54a1.35,1.35,0,0,1-.63-.55,2.44,2.44,0,0,1-.2-.7,1.52,1.52,0,0,1,0-.6,1.27,1.27,0,0,1,.35-.64,1.67,1.67,0,0,1,2.6.2,2.6,2.6,0,0,1,.29.76,1.55,1.55,0,0,1-.11.87,1.84,1.84,0,0,1-.93.78,1,1,0,0,1-.45.08A2.27,2.27,0,0,1,155.73,180.54Z" fill="#3a3a3a"/>
    <path d="M148.73,180.78a1.38,1.38,0,0,1-.62-.55,2.83,2.83,0,0,1-.21-.7,1.73,1.73,0,0,1,0-.6,1.27,1.27,0,0,1,.35-.64,1.66,1.66,0,0,1,2.6.2,2.49,2.49,0,0,1,.29.76,1.52,1.52,0,0,1-.11.86,1.93,1.93,0,0,1-.93.78.9.9,0,0,1-.46.09A2.35,2.35,0,0,1,148.73,180.78Z" fill="#3a3a3a"/>
    <path d="M89.94,156.8a1.25,1.25,0,0,1-.62-.56,2,2,0,0,1-.21-.69,1.52,1.52,0,0,1,0-.6,1.23,1.23,0,0,1,.35-.64,1.67,1.67,0,0,1,2.6.19,2.66,2.66,0,0,1,.29.77,1.52,1.52,0,0,1-.11.86,1.84,1.84,0,0,1-.93.78.88.88,0,0,1-.45.08A2.09,2.09,0,0,1,89.94,156.8Z" fill="#3a3a3a"/>
    <path d="M86.1,152.7a1.33,1.33,0,0,1-.62-.55,2.46,2.46,0,0,1-.21-.7,1.73,1.73,0,0,1,0-.6,1.27,1.27,0,0,1,.35-.64,1.66,1.66,0,0,1,2.6.2,2.78,2.78,0,0,1,.29.76,1.52,1.52,0,0,1-.11.86,1.9,1.9,0,0,1-.94.78.85.85,0,0,1-.45.09A2.35,2.35,0,0,1,86.1,152.7Z" fill="#3a3a3a"/>
    <path d="M136.22,153.61a1.33,1.33,0,0,1-.62-.55,2.46,2.46,0,0,1-.21-.7,1.73,1.73,0,0,1,0-.6,1.27,1.27,0,0,1,.35-.64,1.67,1.67,0,0,1,2.6.19,2.66,2.66,0,0,1,.29.77,1.52,1.52,0,0,1-.11.86,1.9,1.9,0,0,1-.94.78,1,1,0,0,1-.45.09A2.35,2.35,0,0,1,136.22,153.61Z" fill="#3a3a3a"/>
    <path d="M140.06,150.25a1.28,1.28,0,0,1-.62-.55,2.18,2.18,0,0,1-.21-.7,1.52,1.52,0,0,1,0-.6,1.27,1.27,0,0,1,.35-.64,1.66,1.66,0,0,1,2.6.2,2.49,2.49,0,0,1,.29.76,1.52,1.52,0,0,1-.11.86,1.84,1.84,0,0,1-.93.78.89.89,0,0,1-.45.09A2.27,2.27,0,0,1,140.06,150.25Z" fill="#3a3a3a"/>
    <path d="M89.49,204.33a1.34,1.34,0,0,1-.62-.56,2.29,2.29,0,0,1-.2-.69,1.53,1.53,0,0,1,0-.6,1.3,1.3,0,0,1,.35-.65,1.67,1.67,0,0,1,2.6.2,2.66,2.66,0,0,1,.29.77,1.53,1.53,0,0,1-.11.86,1.88,1.88,0,0,1-.93.78.9.9,0,0,1-.46.08A2.16,2.16,0,0,1,89.49,204.33Z" fill="#3a3a3a"/>
    <path d="M93.06,200.39a1.28,1.28,0,0,1-.62-.55,2.1,2.1,0,0,1-.21-.7,1.52,1.52,0,0,1,0-.6,1.27,1.27,0,0,1,.35-.64,1.67,1.67,0,0,1,2.6.2,2.6,2.6,0,0,1,.29.76,1.55,1.55,0,0,1-.11.87,1.84,1.84,0,0,1-.93.78,1,1,0,0,1-.45.08A2.27,2.27,0,0,1,93.06,200.39Z" fill="#3a3a3a"/>
    <path d="M137,203.67a1.25,1.25,0,0,1-.62-.56,2.1,2.1,0,0,1-.21-.7,1.47,1.47,0,0,1,0-.59,1.26,1.26,0,0,1,.35-.65,1.67,1.67,0,0,1,2.6.2,2.66,2.66,0,0,1,.29.77,1.53,1.53,0,0,1-.11.86,1.84,1.84,0,0,1-.93.78.88.88,0,0,1-.45.08A2.26,2.26,0,0,1,137,203.67Z" fill="#3a3a3a"/>
    <path d="M142,207.92a1.3,1.3,0,0,1-.62-.56,2,2,0,0,1-.21-.69,2,2,0,0,1,0-.6,1.3,1.3,0,0,1,.35-.64,1.67,1.67,0,0,1,2.6.19,2.66,2.66,0,0,1,.29.77,1.52,1.52,0,0,1-.11.86,1.84,1.84,0,0,1-.93.78.88.88,0,0,1-.45.08A2.13,2.13,0,0,1,142,207.92Z" fill="#3a3a3a"/>
    <path d="M110.59,195C101.77,192.81,95.5,184,96,174.89a19.51,19.51,0,0,1,18.44-18.21,20.06,20.06,0,0,1,18.62,11.22,19.56,19.56,0,0,1-1.74,18.93,19.91,19.91,0,0,1-18.6,8.52A19,19,0,0,1,110.59,195Z" fill="#363636"/>
  </g>
</svg>
