 <svg xmlns="http://www.w3.org/2000/svg" xmlns:xlink="http://www.w3.org/1999/xlink" viewBox="0 0 221.47 230.07">
  <defs>
   <linearGradient id="linear-gradient" x1="39.4" y1="97.63" x2="194.06" y2="97.63" gradientUnits="userSpaceOnUse">
    <stop offset="0" stop-color="#94e5ff" />
    <stop offset="0.77" stop-color="#abaced" />
    <stop offset="1" stop-color="#b29ae7" />
   </linearGradient>
  </defs>
  <g id="Layer_2" data-name="Layer 2">
   <g>
    <path d="M39.4,99.19A60.32,60.32,0,0,1,39.72,93c2.36-22.56,11.92-41.12,30.1-54.57,18-13.28,41.33-19.54,61.42-14.56,12.61,3.12,25.21,7.21,36,14.58,14,9.54,22,25.77,25.07,42.36,2.56,14,3.22,35.94-4.49,48.69-2.07,3.41-4.17,6.81-6.27,10.2a16.9,16.9,0,0,0-1.16,1.69c-1.86,4.21-5.3,7-8.2,10.37-2.75,3.18-6.17,5.34-9.24,8a33.56,33.56,0,0,1-12.1,6.71,64,64,0,0,0-6.47,3,17.56,17.56,0,0,1-4.4,1.7c-4.23.64-8.54.82-12.75,1.55-4.57.8-9-.31-13.44-.62a59.78,59.78,0,0,1-21.51-5.49c-2.87-1.34-6-2.17-8.76-3.64-4.19-2.2-8.64-4-12.27-7.23-9.19-8.23-18.36-15.32-24.33-26.56A64.15,64.15,0,0,1,39.4,99.19Z" stroke="#363636" stroke-miterlimit="10" stroke-width="7" fill="url(#linear-gradient)" />
    <path d="M47.31,207.77c-.16-1.36-9.64-48.94,8.39-29.8,11,11.71,8.57-22.53,8.57-22.53s17.53-2.66,50.6-2.66a448.71,448.71,0,0,1,56.28,3.68s2.14,27.47,8.18,19.69c18.35-23.61,8.19,30.45,7.69,31.62-.59,1.37-20.54-12.87-39.66-12.87-23.77,0-20.86,12.87-31.29,12.87-10.2,0-6.59-11.75-30.59-11.75C68,196,57.63,208.82,47.31,207.77Z" fill="#e7e6da" stroke="#363636" stroke-linecap="round" stroke-linejoin="round" stroke-width="6.36" />
    <path d="M64.27,165.05s17.53-2.66,50.6-2.66a448.71,448.71,0,0,1,56.28,3.68" fill="none" stroke="#363636" stroke-linecap="round" stroke-linejoin="round" stroke-width="6.36" />
    <path d="M49.41,93.76C52.59,59,82.23,31.79,117,31.37" fill="none" stroke="#363636" stroke-linecap="round" stroke-miterlimit="10" stroke-width="6.36" />
    <path d="M103.2,188.45s.8-16.56,12.43-16.56,12.85,16.56,12.85,16.56" fill="none" stroke="#363636" stroke-linecap="round" stroke-linejoin="round" stroke-width="6.36" />
    <path d="M65.91,140.62a4.35,4.35,0,0,1,4.26.71A2.63,2.63,0,0,1,71.26,144l-.17.88A2.73,2.73,0,0,1,69,147.05c-2.07.47-3.31-.38-4.47-2.85A2.69,2.69,0,0,1,65.91,140.62Z" fill="#3a3a3a" />
    <path d="M82.49,144.9a4.34,4.34,0,0,1,1-4.21,2.65,2.65,0,0,1,2.78-.91l.86.23a2.72,2.72,0,0,1,2,2.21c.33,2.1-.6,3.28-3.15,4.27A2.68,2.68,0,0,1,82.49,144.9Z" fill="#3a3a3a" />
    <path d="M101.85,139.37a4.35,4.35,0,0,1,4.26.71,2.61,2.61,0,0,1,1.09,2.71l-.17.88A2.71,2.71,0,0,1,105,145.8c-2.07.47-3.31-.38-4.47-2.85A2.69,2.69,0,0,1,101.85,139.37Z" fill="#3a3a3a" />
    <path d="M119.09,142.82a4.35,4.35,0,0,1,2.44-3.57,2.64,2.64,0,0,1,2.92.16l.72.53a2.72,2.72,0,0,1,1.06,2.78c-.45,2.08-1.74,2.84-4.48,2.84A2.68,2.68,0,0,1,119.09,142.82Z" fill="#3a3a3a" />
    <path d="M139.79,140.62a4.37,4.37,0,0,1,4.27.71,2.63,2.63,0,0,1,1.09,2.71l-.17.88a2.73,2.73,0,0,1-2.07,2.13c-2.07.47-3.31-.38-4.47-2.85A2.69,2.69,0,0,1,139.79,140.62Z" fill="#3a3a3a" />
    <path d="M165.18,142.79a4.34,4.34,0,0,1,1.53,4,2.63,2.63,0,0,1-1.8,2.31l-.84.29a2.73,2.73,0,0,1-2.89-.72c-1.44-1.56-1.33-3.05.23-5.3A2.68,2.68,0,0,1,165.18,142.79Z" fill="#3a3a3a" />
   </g>
  </g>
 </svg>